<svg xmlns="http://www.w3.org/2000/svg" width="743.202" height="363.915" viewBox="0 0 743.202 363.915">
  <g id="why-us" transform="translate(0 0)">
    <g id="Group_16617" data-name="Group 16617" transform="translate(0 0)">
      <path id="Path_20135" data-name="Path 20135" d="M371.6,0C166.371,0,0,5.883,0,13.139S166.371,26.278,371.6,26.278,743.2,20.4,743.2,13.139,576.831,0,371.6,0Z" transform="translate(0 337.637)" fill="#e9e9e9"/>
      <path id="Path_19837" data-name="Path 19837" d="M2238.479,1080.484s70.68-54.14,45.486-130.314c-18.522-56-76.025-88.976-156.464-76.02-74.955,12.073-156.365-.578-226.439-88.97-81.779-103.159-266.982-40.574-243.429,81.285,15.506,80.222-103.775,83.988-39.28,214.181Z" transform="translate(-1583.73 -733.209)" fill="#f3f3f3"/>
      <g id="Group_16589" data-name="Group 16589" transform="translate(290.609 257.639)">
        <path id="Path_19838" data-name="Path 19838" d="M3004.754,1780.8l.148,0a2.078,2.078,0,0,0,2.028-2.273l-8.063-85.276-7.036.665,11.578,85.735A1.331,1.331,0,0,0,3004.754,1780.8Z" transform="translate(-2991.832 -1693.25)" fill="#949494"/>
      </g>
      <g id="Group_16590" data-name="Group 16590" transform="translate(223.705 257.639)">
        <path id="Path_19839" data-name="Path 19839" d="M3227,1780.8l-.148,0a2.079,2.079,0,0,1-2.029-2.273l8.063-85.276,7.036.665-11.578,85.735A1.331,1.331,0,0,1,3227,1780.8Z" transform="translate(-3224.812 -1693.25)" fill="#949494"/>
      </g>
      <g id="Group_16591" data-name="Group 16591" transform="translate(347.492 257.639)">
        <path id="Path_19840" data-name="Path 19840" d="M2806.662,1780.8l.148,0a2.078,2.078,0,0,0,2.028-2.273l-8.063-85.276-7.036.665,11.578,85.735A1.331,1.331,0,0,0,2806.662,1780.8Z" transform="translate(-2793.74 -1693.25)" fill="#505050"/>
      </g>
      <path id="Path_19841" data-name="Path 19841" d="M3046.942,1370.531l-32.971-118.362h72.83l31.208,114.257Z" transform="translate(-2818.65 -1121.191)" fill="#949494"/>
      <path id="Rectangle_10601" data-name="Rectangle 10601" d="M.785,0H116.4a.785.785,0,0,1,.785.785v12.08a.786.786,0,0,1-.786.786H.786A.786.786,0,0,1,0,12.865V.785A.785.785,0,0,1,.785,0Z" transform="translate(228.292 245.234)" fill="#7a7a7a"/>
      <path id="Rectangle_10602" data-name="Rectangle 10602" d="M.786,0H82.292a.786.786,0,0,1,.786.786v12.08a.785.785,0,0,1-.785.785H.786A.786.786,0,0,1,0,12.865V.786A.786.786,0,0,1,.786,0Z" transform="translate(295.902 245.234)" fill="#505050"/>
      <g id="Group_16593" data-name="Group 16593" transform="translate(204.937 68.931)">
        <path id="Path_19842" data-name="Path 19842" d="M3276.206,1278.628a40.03,40.03,0,0,0,3.774,10.6c1.443,3.577,9.356-16.044,9.356-16.044l1.182-7.558,1.92-12.277.54-3.447,2.15-13.738-.531-2.088-2.585-10.148.233-2.314s-7.977,4.415-10.149,12.792c-.769,2.966-1.88,9.255-2.934,16.291-.165,1.1-1.093,1.558-1.254,2.687C3276.55,1262.963,3275.381,1273.9,3276.206,1278.628Z" transform="translate(-3275.931 -1168.341)" fill="#ff8585"/>
        <path id="Path_19843" data-name="Path 19843" d="M2903.921,1288.84a13.011,13.011,0,0,0-4.16-1.351c-10.969-.944-34.752-9.084-37.27-10.948-4.646-3.44-24.058-19.77-31.711-28.013-.006-.005-6.409-7.533-6.409-7.533-7.242-7.8-.675-21.4-.675-21.4s12.436,5.281,16.935,10.478c2.937,3.392,25.415,31.227,28.22,32.6,9.139,4.456,35.053,19.665,37.757,20.858C2906.608,1283.522,2910.119,1285.961,2903.921,1288.84Z" transform="translate(-2757.753 -1166.9)" fill="#fc9490"/>
        <path id="Path_19844" data-name="Path 19844" d="M2457,1916.175s-1.5,19.5,1.842,19.762c.446.035,16.975.035,16.975.035l21.1-.128s-.138-5.3-6.306-6.427-18.375-6.537-22.112-15.043C2464.565,1905.425,2457,1916.175,2457,1916.175Z" transform="translate(-2242.452 -1659.631)" fill="#202020"/>
        <path id="Path_19845" data-name="Path 19845" d="M2541.768,1495.758s1.857,35.359,5.1,41.518c0,0,1.447-.51,12.009-.6,12.781-.114,73.817-.359,81.136,3.345,2.29,1.159,8.854,28.716,48.062,76.133a16.715,16.715,0,0,0,9.864,2.191c5.688-.414,6.166-1.467,6.166-1.467s-37.3-95.339-45.561-103.193c-12.617-12-77.213-24.338-86.665-24.614S2541.768,1495.758,2541.768,1495.758Z" transform="translate(-2474.079 -1358.989)" fill="#505050"/>
        <path id="Path_19846" data-name="Path 19846" d="M2609.33,1919.6s-1.5,18.691,1.842,18.938c.445.034,16.975.034,16.975.034l21.1-.123s-.138-5.084-6.306-6.159-18.375-6.265-22.111-14.417C2616.9,1909.3,2609.33,1919.6,2609.33,1919.6Z" transform="translate(-2438.531 -1662.231)" fill="#202020"/>
        <path id="Path_19847" data-name="Path 19847" d="M2691.06,1512.384s.513,9.776,1.471,19.942c1.179,12.523,8.945,20.484,21.456,21.791,8.424.879,18.378.414,24.956.377,31.715-.177,43.039-1.554,50.358,2.15,2.29,1.159-8.6,18.548,28.522,76.133,0,0,2.8,2.24,9,3.122a20.633,20.633,0,0,0,7.972-.882s-11.52-90.554-20.9-101.027c-6.71-7.488-59.928-16.271-69.378-16.547S2691.06,1512.384,2691.06,1512.384Z" transform="translate(-2647.649 -1375.614)" fill="#777"/>
        <path id="Path_19848" data-name="Path 19848" d="M2972.529,1237.512s6.5,5.886,17.346,4.871c.615,3.143,1.381,6.636,2.277,10.334.074.307.149.618.227.928,1.412,5.755,3.127,11.973,5.054,18.107,5.591,17.818,12.963,34.975,19.95,38.351.732.354,21.494.159,35.707-5.37a49.214,49.214,0,0,0,11.641-6.763,90.967,90.967,0,0,0,12.426-11.629,5.609,5.609,0,0,0-.462-7.921c-5.349-4.768-14.257-13.195-16.261-18.134-1.691-4.167-4.185-12.932-6.181-20.353,10.5-2.786,12.9-14.21,12.9-14.21s-17.195-18.721-22.581-22.165c-7.049-4.5-16.375-5.082-20.027-5.709-8.963-1.539-19.518-1.272-35.977,6.289,0,0-9.32,5.039-11.8,14.759S2972.529,1237.512,2972.529,1237.512Z" transform="translate(-2972.254 -1150.867)" fill="#1dbf73"/>
        <path id="Path_19849" data-name="Path 19849" d="M3173.174,1185.556c8.834.669,9.6-6.463,9.6-6.463l-.2-4.73-.232-5.555s-6.4-3.375-11.441-5.714c-3.219-1.491-5.889-2.559-5.995-2.059-.737,3.457-2.866,10.344-5.076,13.443C3158.535,1179.842,3164.337,1184.886,3173.174,1185.556Z" transform="translate(-3130.186 -1125.07)" fill="#ff8585"/>
        <g id="Group_16592" data-name="Group 16592" transform="translate(22.6)">
          <path id="Path_19850" data-name="Path 19850" d="M3154.357,1101.822s-22.186,2.006-23.222-11.829-4.6-22.894,9.523-24.76,17.271,3.207,18.741,7.741S3160.1,1100.943,3154.357,1101.822Z" transform="translate(-3121.534 -1056.585)" fill="#ff9591"/>
          <path id="Path_19851" data-name="Path 19851" d="M3105.292,1043.8c-.206-.233-.676-.42-1.722-.473a4.243,4.243,0,0,1,1.952-.558c.213-1.456.978-4.034,3.48-4.669a3.14,3.14,0,0,0-1.514,2.27c2.89-2.989,9.1-5.18,26.309-3.886,22.685,1.706,15.265,16.254,12.336,18s-10.338-2.976-15.807-2.522-6.479,8.363-8.332,9.454-1.128-.829-3.644-1.955-2.739,3.036-2,5.738-2.7,6.284-2.7,6.284l-3.5-3.742c-3.5-3.741-6.846-19.633-5.273-23.029C3105.012,1044.407,3105.149,1044.1,3105.292,1043.8Z" transform="translate(-3103.569 -1036.102)" fill="#2c3a64"/>
        </g>
        <path id="Path_19852" data-name="Path 19852" d="M3149.175,1163.557a3.457,3.457,0,0,1-3.239,2.23,5.617,5.617,0,0,1-4.9-2.423S3145.792,1162.181,3149.175,1163.557Z" transform="translate(-3091.24 -1126.482)" fill="#fff"/>
        <path id="Path_19853" data-name="Path 19853" d="M3188.537,1179.537s1.758-2.92,0-3.51c-9.021-3.025-11.656-1.317-11.656-1.317Z" transform="translate(-3141.677 -1134.565)" fill="#ff8585"/>
        <path id="Path_19854" data-name="Path 19854" d="M3179.653,1188.566s-.795-13.352,3.9-13.251,10.482,1.6,10.7,2.792c.622,3.356-4.783,14.734-7.465,15.24S3179.653,1188.566,3179.653,1188.566Z" transform="translate(-3147.442 -1135.338)" fill="#fc9490"/>
        <path id="Path_19855" data-name="Path 19855" d="M3020.746,1312.291c1.412,5.755,3.127,11.973,5.054,18.107,5.591,17.818,12.963,34.975,19.95,38.351.732.354,21.495.158,35.707-5.37a49.232,49.232,0,0,0,11.641-6.764c-9.519,2.864-25.193.186-39.89-4.831-15.745-5.38-16.519-24.821-16.519-24.821-4.551-10.756,1.369-47.593,1.369-47.593Z" transform="translate(-3000.622 -1209.513)" fill="#079552"/>
        <path id="Path_19856" data-name="Path 19856" d="M3242.268,1225.58s-12.611,68.554-29.276,68.594c-6.42.015-14.28-16.666-5.8-26.161,12.173-13.629,27.285-46.881,27.285-46.881S3236.592,1219.8,3242.268,1225.58Z" transform="translate(-3202.268 -1167.905)" fill="#fc9490"/>
        <path id="Path_19857" data-name="Path 19857" d="M2738.466,1442.012s5.258.892,8.006,0,19.546,5.585,17.53,5.74-12.081-1.332-14.427-1.135-3.6.308-2.678,1.146,7.435,1.074,5.16,1.8-7.86.517-10.239,0a28.816,28.816,0,0,1-6.53-2.473C2733.525,1446.175,2738.466,1442.012,2738.466,1442.012Z" transform="translate(-2589.611 -1325.39)" fill="#fc9490"/>
      </g>
      <g id="Group_16594" data-name="Group 16594" transform="translate(331.043 149.569)">
        <path id="Path_19858" data-name="Path 19858" d="M2798.934,1468.533h-42.178a3.362,3.362,0,0,1,3.362-3.362h38.816Z" transform="translate(-2756.756 -1422.596)" fill="#777"/>
        <path id="Path_19859" data-name="Path 19859" d="M2546.157,1316.914h65.21l-15.642,45.936h-65.632Z" transform="translate(-2504.1 -1316.913)" fill="#505050"/>
        <path id="Path_19860" data-name="Path 19860" d="M2608.024,1316.911l-15.641,45.936H2526.75l16.065-45.936Z" transform="translate(-2499.797 -1316.911)" fill="#505050"/>
        <path id="Path_19861" data-name="Path 19861" d="M2655.326,1387.528a4.24,4.24,0,0,1-3.912,3.178,2.448,2.448,0,0,1-2.445-3.178,4.241,4.241,0,0,1,3.912-3.178A2.447,2.447,0,0,1,2655.326,1387.528Z" transform="translate(-2582.256 -1364.984)" fill="#d5d5d5"/>
      </g>
      <g id="Group_16601" data-name="Group 16601" transform="translate(502.246 193.824)">
        <g id="Group_16596" data-name="Group 16596" transform="translate(80.62 60.213)" opacity="0.7">
          <path id="Path_19862" data-name="Path 19862" d="M1766.3,1706.229s-10.551-12.309-.651-20.128c0,0,7.232-4.378,13.128-4.022,0,0-8.355,14.011-5.652,15.4s8.185-16.284,8.185-16.284,16.457-1.6,21.751.949c0,0-14.068,11.513-11.106,12.2s18.159-10.615,18.159-10.615,15.317,2.607,14.5,11.95-6.094,12.229-8.414,11.98-15.889-5.428-16.184-3.528,7.872,8.112,13.592,8.4c0,0-10.8,11.909-17.975,8.472s-7.79-8.885-12.263-10.928-8.293-2.039-6.446.045,9.943,4.11,12.5,8.635,4.854,7.578-2.571,6.46-19.495-6.55-20.025-12.772Z" transform="translate(-1748.466 -1680.706)" fill="#1dbf73"/>
          <g id="Group_16595" data-name="Group 16595" transform="translate(0 15.157)">
            <path id="Path_19863" data-name="Path 19863" d="M1847.776,1733.559s-41.6-1.6-50.788,10.295a30.094,30.094,0,0,1-8.284,11.626l-.975,2.656s7.209-7.6,9.789-8.061C1797.518,1750.075,1793.483,1735.336,1847.776,1733.559Z" transform="translate(-1779.154 -1733.487)" fill="#1dbf73"/>
            <path id="Path_19864" data-name="Path 19864" d="M1994.81,1807.475s-8.929,6.6-9.55,18.4l1.62.145s2.852-12.2,8.007-16.972S1994.81,1807.475,1994.81,1807.475Z" transform="translate(-1985.261 -1785.482)" fill="#1dbf73"/>
          </g>
        </g>
        <g id="Group_16598" data-name="Group 16598" transform="translate(0 26.792)" opacity="0.53">
          <path id="Path_19865" data-name="Path 19865" d="M2116.2,1607.787s16.784-9.4,8.952-22.155c0,0-6.266-7.833-12.979-9.847,0,0,3.581,19.022,0,19.469s-2.462-21.484-2.462-21.484-17.679-8.5-24.617-7.833c0,0,10.966,18.574,7.385,18.127s-15.889-19.246-15.889-19.246-18.126-3.357-21.036,7.385,1.79,16.113,4.475,16.784,19.917.448,19.469,2.685-12.084,5.818-18.574,3.8c0,0,7.161,17.679,16.56,16.784s12.308-6.714,18.127-7.161,10.07,1.119,7.161,2.686-12.756.513-17.456,4.509-8.5,6.457.224,8.247,24.393.671,27.526-6.042Z" transform="translate(-2054.632 -1564.323)" fill="#1dbf73"/>
          <g id="Group_16597" data-name="Group 16597" transform="translate(9.198 11.238)">
            <path id="Path_19866" data-name="Path 19866" d="M2077.471,1603.46s46.995,15.217,52.366,32.225a35.7,35.7,0,0,0,4.476,16.336v3.357s-4.923-11.413-7.609-12.979C2126.7,1642.4,2137.222,1627.629,2077.471,1603.46Z" transform="translate(-2077.471 -1603.46)" fill="#1dbf73"/>
            <path id="Path_19867" data-name="Path 19867" d="M2064.432,1767.383s7.248,11.006,3.116,24.4l-1.865-.5s1.81-14.756-1.982-22.177S2064.432,1767.383,2064.432,1767.383Z" transform="translate(-2007.591 -1718.821)" fill="#1dbf73"/>
          </g>
        </g>
        <g id="Group_16600" data-name="Group 16600" transform="translate(73.721)">
          <path id="Path_19868" data-name="Path 19868" d="M1732.012,1528.317s-22.124-12.39-11.8-29.2c0,0,8.26-10.325,17.109-12.98,0,0-4.72,25.075,0,25.664s3.245-28.319,3.245-28.319,23.3-11.209,32.449-10.324c0,0-14.455,24.484-9.735,23.894s20.944-25.37,20.944-25.37,23.894-4.425,27.729,9.735-2.36,21.24-5.9,22.125-26.254.59-25.664,3.54,15.929,7.67,24.484,5.015c0,0-9.439,23.3-21.829,22.124s-16.225-8.85-23.894-9.439-13.275,1.474-9.44,3.54,16.815.677,23.01,5.943,11.21,8.512-.3,10.871-32.154.885-36.284-7.965Z" transform="translate(-1717.467 -1471.024)" fill="#1dbf73"/>
          <g id="Group_16599" data-name="Group 16599" transform="translate(2.86 14.814)">
            <path id="Path_19869" data-name="Path 19869" d="M1834.617,1522.613s-61.948,20.059-69.028,42.479c0,0,.3,10.029-5.9,21.535v4.425s6.49-15.044,10.03-17.109C1769.719,1573.942,1755.854,1554.472,1834.617,1522.613Z" transform="translate(-1753.904 -1522.613)" fill="#1dbf73"/>
            <path id="Path_19870" data-name="Path 19870" d="M2016.094,1738.695s-9.554,14.507-4.107,32.167l2.458-.66s-2.386-19.451,2.612-29.234S2016.094,1738.695,2016.094,1738.695Z" transform="translate(-2010.309 -1674.681)" fill="#1dbf73"/>
          </g>
        </g>
        <path id="Path_19871" data-name="Path 19871" d="M1895.085,1883.325a43.338,43.338,0,0,0,43.339-43.338h-86.677A43.338,43.338,0,0,0,1895.085,1883.325Z" transform="translate(-1807.565 -1734.035)" fill="#505050"/>
        <path id="Path_19872" data-name="Path 19872" d="M1937.536,1985.313h-87.873a5.347,5.347,0,0,1,5.346-5.347h77.18a5.347,5.347,0,0,1,5.347,5.347Z" transform="translate(-1806.079 -1833.817)" fill="#777"/>
        <rect id="Rectangle_10603" data-name="Rectangle 10603" width="89.087" height="1.33" transform="translate(42.757 105.952)" fill="#777"/>
      </g>
      <g id="Group_16606" data-name="Group 16606" transform="translate(59.818 223.858)">
        <path id="Path_19873" data-name="Path 19873" d="M3570.529,1577.534v3.023c0,1.058-.343,1.923-.761,1.923h-110.31c-.418,0-.761-.864-.761-1.923v-3.023c0-1.057.344-1.922.761-1.922h110.31C3570.186,1575.612,3570.529,1576.478,3570.529,1577.534Z" transform="translate(-3458.697 -1575.612)" fill="#d5d5d5"/>
        <path id="Path_19874" data-name="Path 19874" d="M3547.667,1577.534v3.023c0,1.058-.315,1.923-.7,1.923h-87.575c-.384,0-.7-.864-.7-1.923v-3.023c0-1.057.314-1.922.7-1.922h87.575C3547.353,1575.612,3547.667,1576.478,3547.667,1577.534Z" transform="translate(-3435.835 -1575.612)" fill="#777"/>
        <rect id="Rectangle_10604" data-name="Rectangle 10604" width="78.313" height="114.145" transform="translate(5.599 6.869)" fill="#d5d5d5"/>
        <rect id="Rectangle_10605" data-name="Rectangle 10605" width="78.313" height="114.145" transform="translate(27.545 6.869)" fill="#f1f2f2"/>
        <g id="Group_16605" data-name="Group 16605" transform="translate(31.754 10.093)">
          <g id="Group_16602" data-name="Group 16602">
            <path id="Path_19875" data-name="Path 19875" d="M3564.046,1610.76h-69.9v104.619h69.9Zm-69.143.755h68.388v103.109H3494.9Z" transform="translate(-3494.149 -1610.76)" fill="#777"/>
          </g>
          <g id="Group_16603" data-name="Group 16603" transform="translate(0.378 34.609)">
            <rect id="Rectangle_10606" data-name="Rectangle 10606" width="69.142" height="0.755" fill="#777"/>
          </g>
          <g id="Group_16604" data-name="Group 16604" transform="translate(0.378 69.892)">
            <rect id="Rectangle_10607" data-name="Rectangle 10607" width="69.142" height="0.755" fill="#777"/>
          </g>
          <path id="Path_19876" data-name="Path 19876" d="M3601.2,1628.635h-12.83a1.135,1.135,0,0,1-1.132-1.133h0a1.135,1.135,0,0,1,1.132-1.132h12.83a1.136,1.136,0,0,1,1.132,1.132h0A1.136,1.136,0,0,1,3601.2,1628.635Z" transform="translate(-3559.166 -1621.888)" fill="#777"/>
          <path id="Path_19877" data-name="Path 19877" d="M3601.2,1748.787h-12.83a1.135,1.135,0,0,1-1.132-1.132h0a1.135,1.135,0,0,1,1.132-1.132h12.83a1.136,1.136,0,0,1,1.132,1.132h0A1.136,1.136,0,0,1,3601.2,1748.787Z" transform="translate(-3559.166 -1707.537)" fill="#777"/>
          <path id="Path_19878" data-name="Path 19878" d="M3601.2,1874.039h-12.83a1.135,1.135,0,0,1-1.132-1.133h0a1.135,1.135,0,0,1,1.132-1.131h12.83a1.135,1.135,0,0,1,1.132,1.131h0A1.136,1.136,0,0,1,3601.2,1874.039Z" transform="translate(-3559.166 -1796.822)" fill="#777"/>
        </g>
      </g>
      <g id="Group_16613" data-name="Group 16613" transform="translate(141.683 32.306)">
        <path id="Rectangle_10609" data-name="Rectangle 10609" d="M2.914,0H49.306a2.915,2.915,0,0,1,2.915,2.915V47.749a2.914,2.914,0,0,1-2.914,2.914H2.916A2.916,2.916,0,0,1,0,47.747V2.914A2.914,2.914,0,0,1,2.914,0Z" transform="translate(0 0)" fill="#d5d5d5"/>
        <g id="Group_16609" data-name="Group 16609" transform="translate(4.31 3.878)">
          <g id="Group_16607" data-name="Group 16607" transform="translate(0)">
            <path id="Path_19879" data-name="Path 19879" d="M3470.375,923.249a1.184,1.184,0,1,0-1.184,1.184A1.184,1.184,0,0,0,3470.375,923.249Z" transform="translate(-3447.391 -922.064)" fill="#505050"/>
            <path id="Path_19880" data-name="Path 19880" d="M3502.986,930.505a1.184,1.184,0,1,0-.46,1.611A1.185,1.185,0,0,0,3502.986,930.505Z" transform="translate(-3489.558 -927.647)" fill="#505050"/>
            <path id="Path_19881" data-name="Path 19881" d="M3529.735,954.2a1.184,1.184,0,1,0,.353,1.637A1.184,1.184,0,0,0,3529.735,954.2Z" transform="translate(-3524.495 -944.837)" fill="#505050"/>
            <path id="Path_19882" data-name="Path 19882" d="M3540.98,989.729a1.184,1.184,0,1,0,1.184,1.184A1.185,1.185,0,0,0,3540.98,989.729Z" transform="translate(-3539.796 -970.298)" fill="#505050"/>
            <path id="Path_19883" data-name="Path 19883" d="M3530.016,1029.556a1.184,1.184,0,1,0,1.675,0A1.184,1.184,0,0,0,3530.016,1029.556Z" transform="translate(-3526.76 -998.441)" fill="#505050"/>
            <path id="Path_19884" data-name="Path 19884" d="M3504.116,1055.521a1.184,1.184,0,1,0,1.675,0A1.185,1.185,0,0,0,3504.116,1055.521Z" transform="translate(-3493.424 -1016.95)" fill="#505050"/>
            <path id="Path_19885" data-name="Path 19885" d="M3470.375,1066.827a1.184,1.184,0,1,0-1.184,1.185A1.184,1.184,0,0,0,3470.375,1066.827Z" transform="translate(-3447.391 -1024.412)" fill="#505050"/>
          </g>
          <g id="Group_16608" data-name="Group 16608" transform="translate(30.06 2.249)">
            <path id="Path_19886" data-name="Path 19886" d="M3435.263,930.505a1.184,1.184,0,1,1,.46,1.611A1.184,1.184,0,0,1,3435.263,930.505Z" transform="translate(-3435.114 -929.896)" fill="#505050"/>
            <path id="Path_19887" data-name="Path 19887" d="M3408.515,954.2a1.184,1.184,0,1,1-.354,1.637A1.185,1.185,0,0,1,3408.515,954.2Z" transform="translate(-3400.178 -947.086)" fill="#505050"/>
            <path id="Path_19888" data-name="Path 19888" d="M3397.27,989.729a1.184,1.184,0,1,1-1.185,1.184A1.184,1.184,0,0,1,3397.27,989.729Z" transform="translate(-3384.878 -972.547)" fill="#505050"/>
            <path id="Path_19889" data-name="Path 19889" d="M3408.235,1029.556a1.184,1.184,0,1,1-1.675,0A1.184,1.184,0,0,1,3408.235,1029.556Z" transform="translate(-3397.914 -1000.69)" fill="#505050"/>
            <path id="Path_19890" data-name="Path 19890" d="M3434.133,1055.521a1.184,1.184,0,1,1-1.675,0A1.184,1.184,0,0,1,3434.133,1055.521Z" transform="translate(-3431.249 -1019.199)" fill="#505050"/>
          </g>
        </g>
        <g id="Group_16612" data-name="Group 16612" transform="translate(17.251 9.698)">
          <path id="Path_19891" data-name="Path 19891" d="M3473.388,990.913a1.184,1.184,0,1,0-1.185,1.184A1.184,1.184,0,0,0,3473.388,990.913Z" transform="translate(-3464.209 -976.118)" fill="#505050"/>
          <g id="Group_16610" data-name="Group 16610" transform="translate(7.832)">
            <rect id="Rectangle_10610" data-name="Rectangle 10610" width="0.323" height="14.796" transform="translate(0)" fill="#505050"/>
          </g>
          <g id="Group_16611" data-name="Group 16611" transform="translate(0 8.236)">
            <rect id="Rectangle_10611" data-name="Rectangle 10611" width="9.972" height="0.97" transform="translate(7.844 6.921) rotate(-141.868)" fill="#505050"/>
          </g>
        </g>
      </g>
      <g id="Group_16616" data-name="Group 16616" transform="translate(184.553 195.201)">
        <path id="Path_19892" data-name="Path 19892" d="M2600.521,1484.409H2283.233a4.3,4.3,0,0,1-4.3-4.3h0a4.3,4.3,0,0,1,4.3-4.3h317.289a4.3,4.3,0,0,1,4.3,4.3h0A4.3,4.3,0,0,1,2600.521,1484.409Z" transform="translate(-2278.938 -1475.818)" fill="#d5d5d5"/>
        <g id="Group_16614" data-name="Group 16614" transform="translate(288.089 4.295)">
          <path id="Path_19893" data-name="Path 19893" d="M2342.4,1636.585l.094-.012a2.149,2.149,0,0,0,1.775-2.426l-17.093-143.371-9.579.3,22.972,144.071A1.663,1.663,0,0,0,2342.4,1636.585Z" transform="translate(-2317.602 -1490.776)" fill="#d5d5d5"/>
        </g>
        <g id="Group_16615" data-name="Group 16615" transform="translate(10.768 4.295)">
          <path id="Path_19894" data-name="Path 19894" d="M3285.218,1636.585l-.094-.012a2.15,2.15,0,0,1-1.775-2.426l17.093-143.371,9.579.3-22.972,144.071A1.664,1.664,0,0,1,3285.218,1636.585Z" transform="translate(-3283.332 -1490.776)" fill="#d5d5d5"/>
        </g>
      </g>
    </g>
  </g>
</svg>
